<svg xmlns="http://www.w3.org/2000/svg" viewBox="0 0 220 170">
    <defs>
        <style>.cls-1{fill:#bc3c49;}.cls-2{fill:#ffeb2e;}.cls-3{fill:#238cc5;}</style>
    </defs>
    <title>Asset 2</title>
    <g id="Layer_2" data-name="Layer 2">
        <g id="Layer_1-2" data-name="Layer 1">
            <polyline class="cls-1" points="156 97 179 154 118 132 74 170 79 123 0 71 84 78 72 0 130 61 220 32"/>
            <polygon class="cls-2" points="23 77 92 81 83 22 129 68 197 47 147 97 166 141 119 125 85 153 88 117 23 77"/>
            <polygon class="cls-3" points="41 83 98 84 91 40 126 75 178 59 140 97 154 130 119 118 93 140 95 112 41 83"/>
        </g>
    </g>
</svg>