<?xml version="1.0" encoding="utf-8"?>
<!-- Generator: Adobe Illustrator 23.0.3, SVG Export Plug-In . SVG Version: 6.00 Build 0)  -->
<svg version="1.1" xmlns="http://www.w3.org/2000/svg" xmlns:xlink="http://www.w3.org/1999/xlink" x="0px" y="0px"
	 viewBox="0 0 300 300" style="enable-background:new 0 0 300 300;" xml:space="preserve">
<style type="text/css">
	.st0{fill:#FFFFFF;stroke:#FFFFFF;stroke-width:28;stroke-miterlimit:10;}
	.st1{fill:#0080C5;}
	.st2{fill:#BC2030;}
	.st3{fill:#00A44D;}
	.st4{fill:#503629;}
</style>
<g id="Layer_1_copy">
	<path class="st0" d="M146.9,224.1l11.3,9.3c1-0.4,1,0.9,3.6,2.9c-0.6,0.4,0.9,0.8,0.3,1.2l53.8,43.2l3.3,2.7
		c0.7,0.7,1.8,0.1,1.6-0.9l-0.6-4.3L200.8,87.8c0,0.1,0,1.2,0,2.9c-0.5-5.3-1.8-11.2-4.1-18.1c-8.9-27.5-51.5-70.5-85.9-52.2
		C97.3,27.6,83,44.8,87.2,66.2c-2.2-2.8-5.1-5.8-5.4-7.3c-0.3-1.5-0.8-2.8-1.9-4c-1.1-1.4-2.5-2-4.3-2.3c-1-0.2-1.9-0.2-2.7,0.1
		c-0.3-9-7.7-16.5-7.7-16.5c-6.8,9.9,0.1,18.2,4,21.4c0,0,0,0-0.1,0.1c-0.5,0.4-1.2,0.8-1.8,1.3c-0.9,0.9-1.6,2-1.7,3.4
		c-0.1,1.1,0.4,2.3,0.9,3.2c1.1,2,2.8,3.1,5.1,3.4c1.6,0.2,2.9,2.7,4.3,3.8c-26.4,17.9-39.8,50.6-24.9,77.5
		c4.7,8.5,9.7,14.5,14.9,18.6c-0.2,0-0.2,0-0.3,0.1c0,0,0,0,1.7,1c1.4,1,2.9,1.9,4.4,2.7c6.4,4,19.7,12.1,47,29l12.2,10l-3.5-2.6
		c4.1,3.1,3.1,2.1,7.6,5.9l5.8,4.8c0.2-0.1,0.5-0.2,0.8-0.2l5.4,4"/>
</g>
<g id="Layer_3">
	<path class="st1" d="M117.8,125.5c0.3-2.3,2.4-4.1,4.9-4.6c-0.9-0.4-1.8-0.8-2.8-1c-4.8-0.8-9.2,1.6-9.8,5.3
		c-0.6,3.7,2.7,7.6,7.5,8.3c2.2,0.4,4.2,0,6-0.7C119.8,131.7,117.2,128.6,117.8,125.5z"/>
	<g>
		<path class="st2" d="M80.1,65.5c-2.3,1.4-4.3,2.2-6.6,1.8c-2.3-0.3-3.9-1.4-5-3.5c-0.5-1-1-2.1-0.9-3.2c0.1-1.5,0.8-2.5,1.7-3.4
			c0.6-0.5,1.3-0.9,1.8-1.3c0.1-0.1,0.2-0.3,0.2-0.3c0.2-1.2,0.9-2.3,1.6-3.2c1.2-1.4,2.9-1.9,4.7-1.5c1.7,0.3,3.2,0.9,4.2,2.3
			c1,1.2,1.5,2.5,1.8,4c0.4,2.6-0.3,5.1-2,7.1C81,64.8,80.5,65.1,80.1,65.5"/>
	</g>
	<path class="st3" d="M67.5,34.5c-8.2,11.7-1.6,16.9,0.7,18.3c-0.3-2.5-0.5-6.2-0.2-8.9c0,0,0.7,4.2,1.9,7.8
		C76.8,39.9,67.5,34.5,67.5,34.5z"/>
	<g>
		<path class="st4" d="M201.6,151.8c-1.5-0.8-2.7-1.7-4.1-2.4c-2.8-1.3-5.6,0.2-5.9,3.2c-0.1,1.1-0.1,2.4-0.1,3.4
			c-0.1,2.4,0,4.9-2.7,6.4c-2.6,1.4-4.7-0.1-6.7-1.3c-1-0.5-1.8-1.1-2.8-1.6c-2.9-1.4-5.7,0.2-6.1,3.5c-0.2,1.9,0,3.9-0.4,5.9
			c-0.4,2.2-1.5,3.5-3,3.9c-0.1,0.1-0.5,0.1-0.6,0.2c-0.1,0.1-0.1,0.1-0.3,0c-0.3,0-0.6-0.1-0.9,0c-0.1,0.1-0.2-0.1-0.3,0l0,0
			c0,0-0.1-0.1-0.2-0.1c-0.4-0.1-0.6-0.2-0.9-0.4c-0.9-0.4-1.7-0.9-2.6-1.2c-1-0.5-1.9-1.3-2.9-1.8c-3.2-1.6-5.6-0.3-6,3.2
			c-0.2,1.5-0.1,3.1-0.3,4.7c-0.4,5.2-3.7,6.9-8.2,4.4c-1.5-0.8-2.7-1.7-4.1-2.4c-2.8-1.3-5.6,0.2-5.9,3.2c-0.1,1.1-0.1,2.4-0.1,3.4
			c-0.1,2.4,0,4.9-2.7,6.4c-2.6,1.4-4.7-0.1-6.7-1.3c-1-0.5-1.8-1.1-2.8-1.6c-2.9-1.4-5.7,0.2-6.1,3.5c-0.2,1.5-0.1,3.1-0.3,4.7
			c0,0-0.2,1.3,0.8,2.2l0,0l21.7,18.3c3.4-0.9,8.7-2.6,14.6-5.3l-7.9-7.1c0,0,4.4,2.2,10,6.1c4.6-2.3,9.4-5.1,14.2-8.7
			c0,0-2.8,4.5-11.3,10.9c1.5,1.1,2.9,2.3,4.3,3.7c2.3,1.9,4.9,4.8,7.4,7.5c2.4-1.5,4.7-3.1,7.1-4.9c0,0-1.5,2.4-5.8,6.3
			c5.4,5.7,10,11.4,10,11.4l-11.3-10.1c-2.6,2.3-6.2,4.9-10.7,7.9l52.9,43.7l3.2,2.7c0.7,0.7,1.8,0.1,1.6-0.9l-0.6-4.3l-15-123.3
			l0,0C203.2,152.3,201.6,151.8,201.6,151.8z"/>
		<path class="st4" d="M170.1,225.5l-11.9-10.7c-3.3,2.3-7.3,4.8-12.1,7.4l11.1,9.4C161.1,230.2,165.5,228.1,170.1,225.5z"/>
	</g>
	<g>
		<path class="st1" d="M113,19.3c-13.7,7-28.2,24.3-24,45.8c-1.6,0.7-3.2,1.4-4.7,2.2C53.6,83.4,36.3,118.8,52,147.8
			c15.8,29.3,35.2,30.2,54.8,20.9c-4.8-3.3-33-23.8-22.1-51.7c0.1-0.2,0.1-0.2,0.1-0.4c1.3-6-4-4.5-4-4.5s1.1-2.5,4.7-1.1
			c0,0,0.4-2.5-5.2-2.7c0,0,3.2-2.8,6.9-0.4c0,0-0.4-2.6-6.2-3.2c0,0,2.6-2,5.7-0.8c1,0.2,5.2,0.7,8.1-1.4
			c8.2-6.4,19.1-7.5,30.8-6.4l13.8-49.3l16.2,62.6c0,0,12.8-16.8,25.1-27.5l-11.6,31.2c0,0,6.8,6,9.7,15.1c0.1-0.1,0.5-0.1,0.6-0.2
			c3-1.3,11.1-7.2,13.7-10.6c9.6-12.4,10.9-24.3,4.4-45.1C189.1,44.9,147.4,1.6,113,19.3z"/>
	</g>
</g>
</svg>
