<svg xmlns="http://www.w3.org/2000/svg" viewBox="0 0 213 178">
    <defs>
        <style>.cls-1{fill:#bc3c49;}.cls-2{fill:#ffeb2e;}.cls-3{fill:#238cc5;}</style>
    </defs>
    <title>Asset 4</title>
    <g id="Layer_2" data-name="Layer 2">
        <g id="Layer_3" data-name="Layer 3">
            <polygon class="cls-1" points="177 84 135 85 126 138 101 92 44 91 94 65 90 26 123 50 156 36 145 63 177 84"/>
            <polygon class="cls-1" points="213 92 146 94 132 178 92 104 0 104 81 61 75 0 126 37 180 15 162 59 213 92"/>
            <polygon class="cls-2" points="190 88 139 89 128 154 97 97 26 96 89 64 84 17 124 45 165 28 151 62 190 88"/>
            <polygon class="cls-3" points="173 84 133 85 125 135 102 91 48 91 95 66 92 30 122 52 153 39 143 64 173 84"/>
        </g>
    </g>
</svg>