<?xml version="1.0" encoding="utf-8"?>
<!-- Generator: Adobe Illustrator 23.0.3, SVG Export Plug-In . SVG Version: 6.00 Build 0)  -->
<svg version="1.1" id="Layer_1" xmlns="http://www.w3.org/2000/svg" xmlns:xlink="http://www.w3.org/1999/xlink" x="0px" y="0px"
	 viewBox="0 0 6175.8 2317.3" style="enable-background:new 0 0 6175.8 2317.3;" xml:space="preserve">
<style type="text/css">
	.st0{fill:#FFFFFF;}
</style>
<path class="st0" d="M6175.8,1875.6c0-231.2-391.5-408.5-874.5-396.1c-72,1.9-142,7.8-209,17.4c-13.2-304.3-280.6-547.2-608.6-547.2
	c-4,0-8,0-12.1,0.1c0.1-3.9,0.2-7.8,0.2-11.7c0-270-267.4-488.8-597.2-488.8c-137.5,0-264.2,38.1-365.1,102
	c-190-177-553.4-304.6-970.4-318.7c-291.6-9.8-556.9,37.6-755.1,123.2c-28.3-33.5-59-65-91.7-94.6c-9.4-8.7-19.3-17.2-29.5-25.6
	C1486.6,88.9,1256.3,0,1004.3,0c-225,0-432.7,70.9-600,190.6c-55.1,35.9-102.4,76.7-140,121.4C112.3,470.8,15.6,678.7,3.1,908H0
	v1184.9h5v224h5210.7c25.1,0.5,50.4,0.5,76,0h884v-426.8h-0.5C6175.6,1885.3,6175.8,1880.5,6175.8,1875.6z"/>
</svg>
