<?xml version="1.0" encoding="utf-8"?>
<!-- Generator: Adobe Illustrator 23.0.3, SVG Export Plug-In . SVG Version: 6.00 Build 0)  -->
<svg version="1.1" id="Layer_1" xmlns="http://www.w3.org/2000/svg" xmlns:xlink="http://www.w3.org/1999/xlink" x="0px" y="0px"
	 viewBox="0 0 506.6 278.3" style="enable-background:new 0 0 506.6 278.3;" xml:space="preserve">
<style type="text/css">
	.st0{fill:#0080C5;}
	.st1{fill:#BC2030;}
	.st2{fill:#00A44D;}
	.st3{fill:#503629;}
</style>
<g>
	<path class="st0" d="M90.7,113.6c0.9-1.2,2.6-1.6,4.2-1.1c-0.4-0.5-0.8-1-1.3-1.4c-2.5-1.9-5.7-1.9-7.2,0c-1.5,1.9-0.8,5.1,1.7,7
		c1.1,0.9,2.4,1.3,3.6,1.4C89.9,117.7,89.4,115.2,90.7,113.6z"/>
	<g>
		<path class="st1" d="M87.7,68.1c-1.7,0.1-3.1-0.1-4.3-1c-1.2-0.9-1.8-2-1.8-3.5c0-0.7,0.1-1.5,0.5-2.1c0.5-0.8,1.2-1.2,2-1.4
			c0.5-0.1,1-0.1,1.4-0.2c0.1,0,0.2-0.1,0.2-0.1c0.5-0.6,1.2-1,1.9-1.3c1.1-0.4,2.2-0.2,3.1,0.6c0.9,0.7,1.5,1.5,1.7,2.6
			c0.2,1,0.1,1.9-0.2,2.8c-0.6,1.6-1.7,2.8-3.3,3.4C88.4,68,88,68,87.7,68.1"/>
	</g>
	<path class="st2" d="M90,46.7c-8.2,4.1-6.1,9.1-5.2,10.6c0.6-1.5,1.6-3.7,2.6-5.1c0,0-0.9,2.6-1.3,5C93.6,52.6,90,46.7,90,46.7z"/>
	<g>
		<path class="st3" d="M130.1,154.1c-0.6-0.9-1-1.8-1.6-2.6c-1.2-1.6-3.2-1.6-4.3,0c-0.4,0.6-0.8,1.3-1.1,1.9
			c-0.8,1.3-1.5,2.8-3.5,2.8c-1.9,0-2.6-1.5-3.4-2.8c-0.4-0.6-0.7-1.2-1.1-1.8c-1.2-1.7-3.3-1.6-4.5,0.1c-0.7,1-1.2,2.2-2,3.2
			c-0.9,1.1-1.9,1.5-2.9,1.3c-0.1,0-0.3-0.1-0.4-0.1c-0.1,0-0.1,0-0.2-0.1c-0.2-0.1-0.3-0.2-0.5-0.3c-0.1,0-0.1-0.1-0.2-0.1
			c0,0,0,0,0,0c0,0,0-0.1-0.1-0.1c-0.2-0.2-0.3-0.3-0.4-0.5c-0.4-0.5-0.7-1-1.1-1.5c-0.4-0.6-0.7-1.3-1.1-1.9
			c-1.3-1.9-3.1-1.9-4.4,0c-0.6,0.8-1,1.7-1.6,2.6c-1.8,2.8-4.2,2.8-6,0c-0.6-0.9-1-1.8-1.6-2.6c-1.2-1.6-3.2-1.6-4.3,0
			c-0.4,0.6-0.8,1.3-1.1,1.9c-0.8,1.3-1.5,2.8-3.5,2.8c-1.9,0-2.6-1.5-3.4-2.8c-0.4-0.6-0.7-1.2-1.1-1.8c-1.2-1.7-3.3-1.6-4.5,0.1
			c-0.6,0.8-1,1.7-1.6,2.6c0,0-0.5,0.7-0.2,1.5c0,0,0,0,0,0l6.7,17c2.2,0.5,5.7,1.2,9.9,1.5l-2.3-6.4c0,0,1.8,2.6,3.8,6.5
			c3.3,0.1,6.9,0,10.7-0.6c0,0-3,1.7-9.7,2.7c0.5,1.1,0.9,2.2,1.3,3.4c0.7,1.8,1.3,4.2,1.9,6.5c1.8-0.1,3.6-0.3,5.5-0.6
			c0,0-1.6,0.9-5.2,1.8c1.3,4.9,2.2,9.5,2.2,9.5l-3.3-9.2c-2.2,0.5-5,0.9-8.5,1.2L98,230.1l1,2.5c0.2,0.6,1,0.6,1.2,0l1-2.6
			l29.2-74.4c0,0,0,0,0,0C130.8,154.9,130.1,154.1,130.1,154.1z"/>
		<path class="st3" d="M89.7,186.2l-3.5-9.7c-2.6,0.3-5.6,0.5-9.1,0.5l3.4,8.7C83.2,186.1,86.3,186.3,89.7,186.2z"/>
	</g>
	<g>
		<path class="st0" d="M120.4,52c-9.9-0.2-23.4,5.1-27.6,18.6c-1.1-0.1-2.2-0.2-3.3-0.2c-22.3-0.3-42.9,14.5-42.9,35.7
			c0,21.4,10.7,27.9,24.6,28.6c-1.7-3.3-11.4-23.6,3.3-36c0.1-0.1,0.1-0.1,0.2-0.2c2.6-3-0.9-3.8-0.9-3.8s1.4-1.1,3,0.8
			c0,0,1-1.3-2.1-3.1c0,0,2.7-0.6,4,1.9c0,0,0.6-1.6-2.5-3.7c0,0,2.1-0.3,3.5,1.3c0.5,0.4,2.7,2,5,1.7c6.6-1.1,13.1,1.6,19.4,5.8
			l22.9-23.7l-10,40.4c0,0,12.4-5.6,22.6-7.9l-16.1,14.1c0,0,2,5.5,0.9,11.5c0.1,0,0.3,0.1,0.4,0.1c2.1,0.2,8.5-0.7,11-1.8
			c9.2-4.1,13.6-10.4,16.3-24.2C155.7,89.8,145.3,52.5,120.4,52z"/>
	</g>
	<g>
		<g>
			<g>
				<g>
					<path class="st3" d="M178.6,169.5c0,3.1,2.3,5.3,5.5,5.3c1.9,0,4.2-0.8,5.8-2.1l0.8-0.7c0.2-0.2,0.4-0.2,0.6-0.2
						c0.4,0,0.9,0.4,0.9,0.9c0,0.5-0.4,0.9-1.8,1.8c-2,1.4-4.4,2.2-6.7,2.2c-4,0-7.1-3-7.1-7.1c0-4.6,3.9-9.3,9.8-11.8
						c2-0.8,4.6-1.6,6.1-1.7c0,0,0.1,0,0.1,0c0.7,0,1.2,0.5,1.2,1.5v0.9c0,0.9-0.3,1.4-0.9,1.4s-0.9-0.4-0.9-1.4v-0.6
						C184.2,159.5,178.6,164.3,178.6,169.5z"/>
				</g>
				<g>
					<path class="st3" d="M208.1,172.5c-2.5,2.5-5.2,3.9-7.4,3.9c-2.2,0-3.7-1.6-3.7-4.1c0-3.5,3-9.3,6.6-12.9c2.5-2.4,5-3.8,7-3.8
						c2.4,0,3.9,1.5,3.9,4C214.5,163.3,211.8,168.9,208.1,172.5z M210.5,157.4c-2.1,0-5.6,2.8-8.3,6.7c-2.1,3-3.4,6.1-3.4,8.3
						c0,1.5,0.9,2.5,2.2,2.5c1.5,0,3.5-1.2,5.7-3.4c3.3-3.4,6-8.6,6-11.6C212.7,158.4,211.8,157.4,210.5,157.4z"/>
				</g>
				<g>
					<path class="st3" d="M221.1,175.1c0,0.9-0.3,1.4-0.9,1.4c-0.6,0-0.9-0.4-0.9-1.4v-17.9c0-1.1,0.2-1.5,0.9-1.5
						c0.4,0,0.6,0.1,1,0.7l0.5,0.6l9.7,15.4v-20.8c0-0.9,0.3-1.3,0.9-1.3c0.6,0,0.9,0.4,0.9,1.3v23.5c0,1-0.2,1.4-0.9,1.4
						c-0.4,0-0.6-0.2-0.9-0.7l-10.2-16.2V175.1z"/>
				</g>
				<g>
					<path class="st3" d="M242.1,170.2h9.3c0.9,0,1.3,0.2,1.3,0.9c0,0.7-0.4,0.9-1.3,0.9h-9.3v2.5h15.3c1,0,1.3,0.3,1.3,0.9
						c0,0.7-0.4,0.9-1.3,0.9h-15.3c-1.7,0-1.8-0.1-1.8-1.4v-17.8c0-1.2,0.2-1.6,1.1-1.6h0.7h9.3c0.9,0,1.3,0.2,1.3,0.9
						c0,0.7-0.3,0.9-1.3,0.9h-9.3V170.2z"/>
				</g>
			</g>
			<g>
				<path class="st3" d="M183.7,177c-4.2,0-7.4-3.2-7.4-7.4c0-4.8,3.9-9.5,10-12.1c2.1-0.9,4.7-1.6,6.2-1.7h0.1
					c0.9,0,1.5,0.7,1.5,1.8v0.9c0,1.4-0.7,1.7-1.2,1.7c-1,0-1.2-0.9-1.2-1.7v-0.2c-7.5,1.6-12.8,6.3-12.8,11.2c0,2.9,2.2,5,5.2,5
					c1.9,0,4.1-0.8,5.6-2.1l0.8-0.7c0.3-0.2,0.5-0.3,0.8-0.3c0.6,0,1.2,0.6,1.2,1.2c0,0.6-0.5,1.1-1.9,2.1
					C188.5,176.2,186.1,177,183.7,177z M192.6,156.4c-1.4,0.1-4,0.8-6,1.7c-5.8,2.5-9.6,7.1-9.6,11.5c0,3.9,2.9,6.8,6.8,6.8
					c2.2,0,4.5-0.8,6.5-2.1c1.2-0.8,1.7-1.2,1.7-1.6c0-0.3-0.3-0.6-0.6-0.6c-0.1,0-0.3,0.1-0.4,0.2l-0.8,0.6c-1.6,1.3-4,2.2-6,2.2
					c-3.4,0-5.8-2.4-5.8-5.6c0-5.4,5.6-10.3,13.7-11.9l0.4-0.1v1c0,1.1,0.3,1.1,0.6,1.1c0.2,0,0.6,0,0.6-1.1v-0.9
					c0-1.2-0.7-1.2-0.9-1.2H192.6z"/>
			</g>
			<g>
				<path class="st3" d="M200.7,176.8c-2.4,0-4-1.8-4-4.4c0-3.6,3-9.5,6.7-13.1c2.6-2.5,5.2-3.9,7.3-3.9c2.6,0,4.2,1.6,4.2,4.3
					c0,3.7-2.8,9.4-6.5,13.1C205.8,175.3,203,176.8,200.7,176.8z M210.7,156c-1.9,0-4.4,1.4-6.8,3.7c-3.6,3.5-6.5,9.2-6.5,12.7
					c0,2.3,1.4,3.8,3.4,3.8c2.1,0,4.8-1.4,7.2-3.9c3.6-3.6,6.3-9.1,6.3-12.7C214.2,157.3,212.9,156,210.7,156z M201,175.1
					c-1.5,0-2.5-1.1-2.5-2.8c0-2.2,1.3-5.4,3.4-8.4c2.8-4,6.3-6.8,8.6-6.8c1.5,0,2.5,1.1,2.5,2.7c0,3.1-2.7,8.4-6.1,11.8
					C204.7,173.8,202.6,175.1,201,175.1z M210.5,157.7c-2,0-5.4,2.8-8.1,6.6c-2.1,3-3.3,6-3.3,8.1c0,1.3,0.7,2.2,1.9,2.2
					c1.4,0,3.4-1.2,5.5-3.3c3.3-3.3,5.9-8.4,5.9-11.4C212.4,158.5,211.6,157.7,210.5,157.7z"/>
			</g>
			<g>
				<path class="st3" d="M232.3,176.8c-0.5,0-0.8-0.2-1.2-0.8l-9.6-15.3v14.5c0,1.4-0.7,1.7-1.2,1.7c-1.2,0-1.2-1.3-1.2-1.7v-17.9
					c0-0.9,0.1-1.8,1.2-1.8c0.6,0,0.8,0.2,1.2,0.8l0.4,0.6l9.1,14.5v-19.7c0-1.4,0.7-1.6,1.2-1.6c1.2,0,1.2,1.2,1.2,1.6v23.5
					C233.4,176,233.3,176.8,232.3,176.8z M220.8,158.6l10.7,17.1c0.3,0.5,0.5,0.5,0.7,0.5c0.3,0,0.6,0,0.6-1.1v-23.5
					c0-1-0.3-1-0.6-1c-0.2,0-0.6,0-0.6,1v21.8l-10.2-16.2l-0.4-0.6c-0.4-0.6-0.5-0.6-0.7-0.6c-0.4,0-0.6,0-0.6,1.2v17.9
					c0,1.1,0.3,1.1,0.6,1.1c0.2,0,0.6,0,0.6-1.1V158.6z"/>
			</g>
			<g>
				<path class="st3" d="M257.4,176.7h-15.3c-1.8,0-2.1-0.1-2.1-1.7v-17.8c0-1.2,0.2-1.9,1.4-1.9h10c0.7,0,1.6,0.1,1.6,1.2
					c0,1.1-0.8,1.2-1.6,1.2h-9v12.1h9c0.8,0,1.6,0.1,1.6,1.2c0,1.1-0.9,1.2-1.6,1.2h-9v1.9h15c0.7,0,1.6,0.1,1.6,1.2
					C259,176.6,258.2,176.7,257.4,176.7z M241.4,155.9c-0.6,0-0.8,0-0.8,1.3V175c0,1.1,0,1.1,1.5,1.1h15.3c1,0,1-0.2,1-0.6
					c0-0.4-0.1-0.6-1-0.6h-15.6v-3.1h9.6c1,0,1-0.3,1-0.6c0-0.4-0.1-0.6-1-0.6h-9.6v-13.3h9.6c0.9,0,1-0.2,1-0.6
					c0-0.4-0.1-0.6-1-0.6H241.4z"/>
			</g>
		</g>
		<g>
			<g>
				<g>
					<path class="st0" d="M274.7,150.3c3.3,0,6.5-0.4,9.8-0.4c9.2,0,17.2,2.1,17.2,13.2c0,10.1-7.1,15.7-19.9,15.7
						c-1.1,0-1.7,0-3.3-0.2c-0.1,2.6-0.1,3.7-0.1,5.4c0,6.7,0.2,12.2,0.5,16.6c-2.7-0.3-3.8-0.4-6-0.4c-2.6,0-3.6,0.1-6.3,0.4
						c0.5-5.6,0.7-8.3,0.8-12.5l0.1-12.6c0.1-7.1,0.1-11.4,0.1-12.6l-0.2-10.5l-0.1-2.7C269.9,150.1,272.3,150.3,274.7,150.3z
						 M286.8,172.6c2.1-1.9,3.2-4.7,3.2-8.6c0-7-2.6-9.9-8.9-9.9c-0.5,0-1,0-2,0.1l-0.1,2l-0.2,7.8c-0.1,3.6-0.1,7.2-0.1,10.8
						C283.3,174.7,285,174.3,286.8,172.6z"/>
				</g>
			</g>
			<g>
				<g>
					<g>
						<path class="st0" d="M315.5,150.3c2.2,0,3.3-0.1,5.9-0.4c-0.9,11-1.4,21.9-1.4,32.9c0,7.4,0.1,11.9,0.5,18
							c-3.2-0.3-4.4-0.4-6-0.4c-2.4,0-3.5,0.1-6.5,0.4c1-12.9,1.2-25.7,1.2-38.6c0-5.5-0.1-7.4-0.4-12.3
							C311.8,150.2,312.9,150.3,315.5,150.3z"/>
					</g>
				</g>
				<g>
					<g>
						<path class="st0" d="M341,150.5c8.3,0,13.8-0.2,19.2-0.6c-0.4,1.4-0.5,2-0.5,3.2c0,1.5,0.1,2,0.5,3.3
							c-5.8-0.5-11.5-0.6-17.3-0.9c0,5.4-0.3,10.8-0.3,16.2c5.7-0.2,11.4-0.3,17.1-0.6c-0.4,1.4-0.5,1.9-0.5,3
							c0,1.2,0.1,1.8,0.5,3.2c-5.7-0.4-11.4-0.7-17.1-0.7v1.4l-0.1,8.5c0,3,0.1,5.9,0.1,8.9c5.7,0,11.4-0.2,17.1-0.9
							c-0.2,1.5-0.2,2.1-0.2,3.4c0,1.2,0,1.7,0.2,2.9c-4.5-0.2-8.9-0.4-13.5-0.4c-5.3,0-10.7,0.2-15.3,0.4
							c0.3-8.2,0.6-16.3,0.7-24.5c0-8.8-0.1-17.5-0.5-26.3C335,150.4,336.7,150.5,341,150.5z"/>
					</g>
					<g>
						<path class="st0" d="M393.4,160c-1.4-4.1-4.5-6.5-8.6-6.5c-4.5,0-7.9,2.9-7.9,6.7c0,10.6,22.1,8.6,22.1,24.9
							c0,10.1-7.5,16.5-19.5,16.5c-4.7,0-8-0.8-12.3-3.2c1-3,1.8-6.5,2.2-9.2h1.6c1.1,5.1,4.9,8.1,10.5,8.1c5,0,8.7-3.3,8.7-7.6
							c0-10.8-22-8.8-22-25.2c0-9.3,6.6-15.3,16.8-15.3c5,0,8.4,1,12.3,3.5c-1.1,2.2-1.6,3.5-2.5,7.2H393.4z"/>
					</g>
				</g>
				<g>
					<g>
						<g>
							<path class="st0" d="M207.9,115.6c2.3,2.3,9.4,3.3,9.4,12.8c0,9.8-9,17.1-18.3,17.1c-2.6,0-4.2-1.4-6.5-2.5
								c-0.1,1.1-0.9,4.5-1.6,4.5c-0.5,0-0.8-0.6-1.4-0.7c-0.3,0-0.7,0-0.7,0c-1.9,0-5.2-0.3-5.2-2.3c0-0.5,0.3-1.1,0.3-1.6
								c0-0.8-0.5-1.5-0.6-2.5c-0.1-1.9,0.4-3.2,0.5-4.9l1.4-32.5c0-0.9-0.5-2.5-1.3-1.9c0,0-6.9,2.3-6.7,4.4
								c-1-0.4-2.5-0.8-2.5-2.1c0-1.2,0.6-2,0.7-3.5c0.1-0.8-1.2-1.2-1.2-1.9c-0.1-3,17.1-10,26.7-10c4.4,0,8.5,2.2,10.7,6.5
								c3.5,2.1,4.6,5.7,4.6,9.5C216.1,109.6,211.8,112.6,207.9,115.6z M191.4,98.7c1.4,0.5,3.6,1.4,3.6,3.2
								c-0.1,0.2-0.4,0.3-0.5,0.3c-1.4,1.5-1.4,9.6-1.4,9.6c-0.1,0.6,0.8,1.5,1.2,1.2c0,0,15.2-2.7,15.2-13.4c0-3-2.9-4.3-5.5-4.2
								C199.3,95.5,195.5,97.3,191.4,98.7z M192.5,136.8c0.1,0,0.3-0.1,0.4-0.1c1.7,0,3,2,4.9,2c5.6,0,10.9-6.5,10.7-11.4
								c-0.2-3.8-3-6.8-7-6.8c-3.1,0-6,0.3-9,1.2C192.2,126.7,191.8,131.1,192.5,136.8z"/>
						</g>
						<g>
							<path class="st0" d="M235.2,135c-1.5,2.8-4.6,6.5-8.1,6.5c-5.2,0-7.8-4.8-7.7-9.6c0.3-13.2,1.6-18.2,1.6-18.2
								c0.1-0.5-0.1-1.4-0.8-1.6c0.3-0.8,0.6-2.4,1.4-2c1.2,0.5,3-0.9,4.6-0.9c1,0,4.5,2.9,4.5,3.9c0,2.5-2.4,3.2-3,16.2
								c-0.1,1.5,0.1,6.1,2.3,6.1c2.7,0,4.4-5.7,5.2-5.7C235.2,132.8,235.2,133.2,235.2,135z M230.4,99.8c-0.3,3-2.9,4.3-4.6,4.3
								c-2.9,0-5.2-2.6-5.2-5.7c0.8-4.1,1.9-4.2,4.4-4.5C228.1,93.6,230.8,96.7,230.4,99.8z"/>
						</g>
						<g>
							<path class="st0" d="M239.9,120.4c-0.8,6.4-4.9,16.9-5.9,16.9c-0.5,0-0.5-0.3-0.5-0.8c0-0.7,0.3-1.4,0.3-2.1
								c0-0.5-0.2-0.9-0.2-1.5c-0.2-4.7,1.7-7.9,1.7-12c0-1.5-1.4-2.5-1.4-4.1c0.1-2.9,0.3-6.3,0.4-9.2c1.1-0.7,2-2.4,3.5-2.4
								c3.1,0.2,3.2,2,3.2,2.4c0,1.7-0.8,0.2-0.8,4.6c0,0.6,0.3,1.1,0.7,1.1c4.6,0,3.9-3,6.6-3c0.6,0,6,2.5,6.2,4.1
								c0.3,2.8-3-0.3-3.8,16.7c-0.3,5,2.7,5.7,4.4,5.6c2.9-0.3,2.8-4.9,3.6-4.8c0.7,0.1,0.3,3.2,0.3,4.7c-0.3,1.9-6.3,7.5-8.5,7.9
								c-5.1,0-8.3-4.9-8.3-9.6c0-5.9,2-10.1,2-14.1c-0.2-0.5-0.5-0.9-1-1c-0.7-0.1-1.2,0.7-1.9,0.7
								C240.3,120.5,240.1,120.4,239.9,120.4z"/>
						</g>
						<g>
							<path class="st0" d="M274,137c-2.5,2.5-4.6,8-8.8,8c-5.3,0-7.3-9-7.3-13c0-6.3,3-22.5,10.9-22.5c4.2,0,3,1.3,5.2,2
								c1.1-5,1.3-15.5,1.3-15.5c0.1-0.7-0.4-1.6-0.7-1.6c-0.5,0-0.7-0.1-0.7-0.7c0-1.5,2.5-3.5,3.9-3.6c0.6,0,1-0.8,1.7-0.8h3.6
								c1.3,0,2.3,2.2,2.3,3.4c0,2.9-1.2,3.7-1.2,4.5c0,0.5,0.1,0.8,0,1.3c0,0-3.1,19.5-3.1,29.3c0,1.5-0.1,7.6,3.1,7.6
								c1.7,0,4.6-5.6,5.2-5.5c1.6,7-5.4,12.3-10.1,12.3C276.6,142.3,274.5,139.3,274,137z M272,114.4c-3.7,0-5.7,13.1-5.7,18.8
								c0,1.7,0.1,4.2,1.9,4.2c3.7-0.1,5.8-16.7,5.8-21.5C274,114.7,272.5,114.4,272,114.4z"/>
						</g>
						<g>
							<path class="st0" d="M304.8,135c-1.5,2.8-4.6,6.5-8.1,6.5c-5.2,0-7.8-4.8-7.7-9.6c0.3-13.2,1.6-18.2,1.6-18.2
								c0.1-0.5-0.1-1.4-0.8-1.6c0.3-0.8,0.6-2.4,1.4-2c1.2,0.5,3-0.9,4.6-0.9c1,0,4.5,2.9,4.5,3.9c0,2.5-2.4,3.2-3,16.2
								c-0.1,1.5,0.1,6.1,2.3,6.1c2.7,0,4.4-5.7,5.2-5.7C304.8,132.8,304.8,133.2,304.8,135z M300.1,99.8c-0.3,3-2.9,4.3-4.6,4.3
								c-2.9,0-5.2-2.6-5.2-5.7c0.8-4.1,1.9-4.2,4.4-4.5C297.8,93.6,300.4,96.7,300.1,99.8z"/>
						</g>
						<g>
							<path class="st0" d="M308,111.1c3.5,0,2.7-2.3,9.8-2.1c5.1,0.1,7.9,6.6,7.9,10.9c0,4.7-3.2,12.1-10,12.8
								c-0.8,0.1-1.7-0.3-2.5-0.3c-0.5,0-0.8,0.3-0.8,1c0,2.7,1.7,5.9,4.6,5.9c5.7,0,11.4-9,11.8-9c0.3,0,0.3,0.3,0.3,0.6
								c0,0.2-0.1,0.4-0.1,0.5c0,0.8,0.2,1.4,0.1,2.2c-0.3,3.3-1.6,5.7-4.5,7.2c0,0-4.1,5-9.7,5.2c-5.5,0-10.7-5.5-10.7-11
								C304.3,127,304.7,118.3,308,111.1z M312.6,128c0,0.5,1.3,1.4,2,1.4c3,0,4.1-9.2,4.1-12c0-2.3-0.8-4.8-2.2-5
								C315.2,112.2,312.6,125.8,312.6,128z"/>
						</g>
						<g>
							<path class="st0" d="M341.4,137c-0.9,0.9-2.8,2.4-4,2.4c-0.3,0-0.4-0.3-0.4-0.5c0-6.1,3.7-4.5,3.8-8.5
								c0.1-3.9,4.7-11.9,3.3-18.9c0-0.9,1-0.8,1.7-0.9c1.3-0.3,1.8-1.8,3.1-1.8c1.5,0,4.6,0.3,4.6,0.3c1.2,0.1,0.9,1.6,1.2,2.8
								l1.9,8.9c0.9,4.3,3.5,4.1,3.5,10.7c0,7.2-3.5,10.7-9.2,13.6c0,0-2.6,2-4,2c-3.7-0.1-5.7-5.7-5.7-8.5
								C341.3,137.9,341.4,137.5,341.4,137z M343.3,133.4c1-0.5,2.6-1.9,3-1.9c0.3,0,0.4,0.1,0.5,0.3c0.1,0.2,0,0.3,0,0.4
								c0,0.2,0.3,0.3,0.3,0.5c0,1.8-0.9,2.9-0.9,4.4c0,1.4,1.9,3.6,3.3,3.6c2.1,0,3.3-2.7,3.3-4.5c0-3.5-3.5-10.9-4.5-16.7
								c-0.7,0-0.8,2.4-0.8,2.9C346.2,126.1,344.9,129.8,343.3,133.4z"/>
						</g>
					</g>
					<path class="st0" d="M343.1,88.8c-17.8,7.9-13.8,18.8-11.9,22.2c1.4-3.2,3.7-7.8,5.9-10.6c0,0-2.2,5.4-3.2,10.5
						C350.2,101.6,343.1,88.8,343.1,88.8z"/>
				</g>
			</g>
		</g>
		<g>
			<g>
				<path class="st3" d="M274.1,209c3.3,0,5.6,1.4,5.6,3.3c0,1.5-1,2.9-2.9,4c-2.6,1.5-5.7,2.4-8.5,2.4c-0.1,0-0.2,0-0.3,0v4
					c0,0.7-0.2,1-0.7,1c-0.4,0-0.6-0.3-0.6-1V210c0-0.7,0.2-1,0.7-1c0.5,0,0.7,0.3,0.7,1v0.2C269.7,209.5,272.1,209,274.1,209z
					 M267.9,217.5c0.1,0,0.2,0,0.2,0c2,0,4.3-0.5,6.2-1.3c2.5-1.1,3.8-2.4,3.8-3.7c0-1.3-1.7-2.1-4.2-2.1c-1.8,0-4.4,0.5-6.1,1.1
					V217.5z"/>
				<path class="st3" d="M267.2,223.8c-0.5,0-0.7-0.3-0.7-1V210c0-0.7,0.2-1,0.7-1c0.5,0,0.7,0.3,0.7,1v0.1c1.7-0.7,4.1-1.1,6.1-1.1
					c1.6,0,3,0.3,4,0.9c1,0.6,1.6,1.5,1.6,2.4c0,1.5-1,2.9-2.9,4.1c-2.6,1.6-5.7,2.4-8.5,2.4H268v3.9
					C268,223.5,267.7,223.8,267.2,223.8z M267.3,209.1c-0.3,0-0.6,0.1-0.6,0.9v12.8c0,0.8,0.3,0.9,0.6,0.9c0.4,0,0.6-0.3,0.6-0.9
					v-4.1h0.4c2.8,0,5.9-0.9,8.5-2.4c1.9-1.2,2.9-2.5,2.9-4c0-0.9-0.5-1.7-1.5-2.3c-1-0.6-2.4-0.9-4-0.9c-2,0-4.4,0.5-6.1,1.2
					l-0.1,0V210C267.9,209.3,267.7,209.1,267.3,209.1z M268.1,217.5h-0.3v-6.1l0,0c1.7-0.7,4.2-1.2,6.1-1.2c2.5,0,4.3,0.9,4.3,2.2
					c0,1.3-1.3,2.6-3.9,3.7C272.5,217,270.2,217.5,268.1,217.5z M268,217.4h0.1c2,0,4.3-0.5,6.2-1.3c2.5-1.1,3.8-2.4,3.8-3.6
					c0-1.2-1.7-2-4.1-2c-1.8,0-4.3,0.5-6,1.1V217.4z"/>
			</g>
			<g>
				<path class="st3" d="M282.9,219.3h6.9c0.7,0,1,0.2,1,0.7c0,0.5-0.3,0.6-1,0.6h-6.9v1.8h11.3c0.7,0,1,0.2,1,0.7
					c0,0.5-0.3,0.7-1,0.7h-11.3c-1.2,0-1.3-0.1-1.3-1V210c0-0.9,0.2-1.1,0.8-1.1h0.5h6.9c0.7,0,1,0.2,1,0.7s-0.2,0.7-1,0.7h-6.9
					V219.3z"/>
				<path class="st3" d="M294.2,223.8h-11.3c-1.3,0-1.4-0.1-1.4-1.1V210c0-0.9,0.2-1.2,0.9-1.2h7.4c0.7,0,1,0.2,1,0.7
					c0,0.5-0.3,0.7-1,0.7H283v8.9h6.8c0.7,0,1,0.2,1,0.7c0,0.5-0.3,0.7-1,0.7H283v1.7h11.2c0.7,0,1,0.2,1,0.7
					C295.2,223.6,295,223.8,294.2,223.8z M282.4,209c-0.5,0-0.7,0.2-0.7,1v12.7c0,0.9,0.1,1,1.3,1h11.3c0.7,0,0.9-0.2,0.9-0.6
					c0-0.4-0.2-0.6-0.9-0.6h-11.4v-1.9h6.9c0.8,0,0.9-0.2,0.9-0.6c0-0.4-0.2-0.6-0.9-0.6h-6.9v-9.2h6.9c0.8,0,0.9-0.2,0.9-0.6
					c0-0.4-0.2-0.6-0.9-0.6H282.4z"/>
			</g>
			<g>
				<path class="st3" d="M297.5,218.8c0,2.2,1.7,3.8,4,3.8c1.4,0,3.1-0.6,4.3-1.5l0.6-0.5c0.2-0.1,0.3-0.2,0.4-0.2
					c0.3,0,0.6,0.3,0.6,0.7c0,0.3-0.3,0.7-1.3,1.3c-1.5,1-3.2,1.5-4.9,1.5c-3,0-5.2-2.2-5.2-5.1c0-3.3,2.9-6.6,7.2-8.4
					c1.5-0.6,3.4-1.1,4.5-1.2c0,0,0.1,0,0.1,0c0.6,0,0.9,0.4,0.9,1.1v0.6c0,0.7-0.2,1-0.7,1c-0.5,0-0.6-0.3-0.6-1v-0.4
					C301.6,211.6,297.5,215.1,297.5,218.8z"/>
				<path class="st3" d="M301.3,224c-1.5,0-2.8-0.5-3.8-1.5c-1-0.9-1.5-2.3-1.5-3.7c0-1.6,0.7-3.3,2-4.8c1.3-1.5,3.1-2.8,5.3-3.7
					c1.5-0.6,3.5-1.1,4.5-1.2l0.1,0c0.6,0,0.9,0.4,0.9,1.1v0.6c0,0.7-0.2,1-0.7,1c-0.5,0-0.7-0.3-0.7-1v-0.4c-2.8,0.5-5.2,1.6-7,3.1
					c-1.8,1.5-2.8,3.3-2.8,5.1c0,2.2,1.7,3.7,4,3.7c1.4,0,3.1-0.6,4.2-1.5l0.6-0.5c0.2-0.1,0.3-0.2,0.5-0.2c0.4,0,0.7,0.3,0.7,0.7
					c0,0.4-0.3,0.7-1.4,1.4C304.7,223.4,303,224,301.3,224z M307.8,209.3c-1.1,0.1-3,0.6-4.5,1.2c-2.1,0.9-3.9,2.1-5.2,3.6
					c-1.3,1.5-2,3.1-2,4.7c0,2.9,2.2,5,5.2,5c1.7,0,3.4-0.5,4.9-1.5c1-0.6,1.3-0.9,1.3-1.3c0-0.3-0.3-0.6-0.6-0.6
					c-0.1,0-0.3,0.1-0.4,0.2l-0.6,0.5c-1.2,0.9-2.9,1.5-4.3,1.5c-2.4,0-4.1-1.6-4.1-3.9c0-1.8,1-3.6,2.8-5.1
					c1.8-1.5,4.3-2.6,7.1-3.2l0.1,0v0.5c0,0.8,0.2,0.9,0.6,0.9c0.4,0,0.6-0.3,0.6-0.9v-0.6C308.7,209.9,308.5,209.3,307.8,209.3
					L307.8,209.3z"/>
			</g>
			<g>
				<path class="st3" d="M322.3,205.7l0.1-0.2c0.2-0.2,0.3-0.3,0.5-0.3c0.4,0,0.7,0.3,0.7,0.7c0,0.2-0.1,0.3-0.2,0.5l-10,13
					l12.7,3.1c0.5,0.1,0.7,0.3,0.7,0.7c0,0.4-0.3,0.7-0.6,0.7c-0.1,0-0.2,0-0.4-0.1l-13.3-3.1v2.2c0,0.7-0.2,1-0.7,1
					c-0.4,0-0.6-0.3-0.6-1V210c0-0.7,0.2-1,0.7-1c0.5,0,0.7,0.3,0.7,1v8.4L322.3,205.7z"/>
				<path class="st3" d="M326.1,223.8c-0.1,0-0.3,0-0.4-0.1l-13.2-3.1v2.2c0,0.7-0.2,1-0.7,1c-0.5,0-0.7-0.3-0.7-1V210
					c0-0.7,0.2-1,0.7-1c0.5,0,0.7,0.3,0.7,1v8.2l9.7-12.6l0.1-0.2c0.2-0.2,0.3-0.3,0.6-0.3c0.4,0,0.7,0.3,0.7,0.7
					c0,0.2-0.1,0.3-0.2,0.5l-10,13l12.6,3c0.5,0.1,0.7,0.3,0.7,0.7C326.8,223.5,326.5,223.8,326.1,223.8z M312.4,220.5l13.4,3.2
					c0.2,0,0.3,0.1,0.4,0.1c0.3,0,0.6-0.3,0.6-0.6c0-0.3-0.2-0.5-0.6-0.6l-12.8-3.1l10.1-13.1c0.1-0.2,0.2-0.3,0.2-0.4
					c0-0.3-0.3-0.6-0.6-0.6c-0.2,0-0.3,0-0.5,0.3l-0.1,0.2l-9.9,12.8V210c0-0.6-0.2-0.9-0.6-0.9c-0.3,0-0.6,0.1-0.6,0.9v12.8
					c0,0.8,0.3,0.9,0.6,0.9c0.4,0,0.6-0.3,0.6-0.9V220.5z"/>
			</g>
			<g>
				<path class="st3" d="M329.5,223.8c-0.4,0-0.6-0.3-0.6-1V210c0-0.7,0.2-1,0.7-1c0.5,0,0.7,0.3,0.7,1v12.8
					C330.2,223.4,330,223.8,329.5,223.8z"/>
				<path class="st3" d="M329.5,223.8c-0.5,0-0.7-0.3-0.7-1V210c0-0.7,0.2-1,0.7-1c0.5,0,0.7,0.3,0.7,1v12.8
					C330.3,223.5,330,223.8,329.5,223.8z M329.5,209.1c-0.3,0-0.6,0.1-0.6,0.9v12.8c0,0.8,0.3,0.9,0.6,0.9c0.4,0,0.6-0.3,0.6-0.9
					V210C330.1,209.3,330,209.1,329.5,209.1z"/>
			</g>
			<g>
				<path class="st3" d="M335.2,222.8c0,0.7-0.2,1-0.7,1c-0.4,0-0.6-0.3-0.6-1V210c0-0.8,0.2-1.1,0.7-1.1c0.3,0,0.4,0.1,0.7,0.5
					l0.3,0.4l7.1,10.9v-14.8c0-0.6,0.2-1,0.7-1c0.5,0,0.7,0.3,0.7,1v16.7c0,0.7-0.2,1-0.6,1c-0.3,0-0.5-0.1-0.7-0.5l-7.5-11.5V222.8
					z"/>
				<path class="st3" d="M343.4,223.8c-0.3,0-0.5-0.1-0.7-0.5l-7.4-11.4v10.9c0,0.7-0.2,1-0.7,1c-0.5,0-0.7-0.3-0.7-1V210
					c0-0.8,0.2-1.1,0.7-1.1c0.3,0,0.5,0.1,0.8,0.5l0.3,0.4l7,10.8v-14.6c0-0.7,0.2-1,0.7-1c0.5,0,0.7,0.3,0.7,1v16.7
					C344.1,223.5,343.9,223.8,343.4,223.8z M335.1,211.5l7.6,11.7c0.2,0.3,0.4,0.5,0.6,0.5c0.4,0,0.6-0.1,0.6-0.9v-16.7
					c0-0.6-0.2-0.9-0.6-0.9c-0.4,0-0.6,0.3-0.6,0.9v15l-7.2-11.1l-0.3-0.4c-0.3-0.4-0.4-0.5-0.7-0.5c-0.4,0-0.6,0.1-0.6,1v12.8
					c0,0.8,0.3,0.9,0.6,0.9c0.4,0,0.6-0.3,0.6-0.9V211.5z"/>
			</g>
			<g>
				<path class="st3" d="M347.8,210.5C347.8,210.5,347.8,210.4,347.8,210.5c-0.3-0.3-0.4-0.5-0.4-0.8c0-0.4,0.3-0.8,0.8-0.8
					c0.4,0,0.8,0.4,0.8,0.8c0,0.7-0.7,1.4-1.5,1.6C347.7,210.9,347.7,210.9,347.8,210.5z"/>
				<path class="st3" d="M347.4,211.4l0.1-0.1c0.2-0.3,0.2-0.4,0.3-0.7l0-0.1l0,0c0,0,0,0,0,0c0,0,0,0,0,0c-0.3-0.2-0.4-0.5-0.4-0.8
					c0-0.5,0.4-0.8,0.8-0.8c0.5,0,0.9,0.4,0.9,0.9c0,0.7-0.7,1.5-1.5,1.6L347.4,211.4z M347.9,210.5L347.9,210.5
					c-0.1,0.4-0.1,0.4-0.3,0.7c0.7-0.2,1.3-0.8,1.3-1.5c0-0.4-0.3-0.8-0.7-0.8c-0.4,0-0.7,0.3-0.7,0.7c0,0.3,0.1,0.5,0.4,0.7l0,0
					L347.9,210.5C347.9,210.4,347.9,210.5,347.9,210.5C347.9,210.5,347.9,210.5,347.9,210.5z"/>
			</g>
			<g>
				<path class="st3" d="M363.1,208.9c3.1,0,5.5,2.1,5.5,5c0,2.7-1.7,5.2-4.9,7.4c-2,1.3-4.7,2.5-5.7,2.5c-0.4,0-0.6-0.2-0.6-0.8
					v-0.5V210c0-0.7,0.2-1,0.7-1c0.5,0,0.7,0.3,0.7,1v0.3C360.3,209.3,361.6,208.9,363.1,208.9z M358.7,222.2c4.6-1.3,8.5-5,8.5-8.1
					c0-2.3-1.7-3.8-4.2-3.8c-1.5,0-2.7,0.4-4.3,1.5V222.2z"/>
				<path class="st3" d="M357.9,223.8c-0.5,0-0.7-0.2-0.7-0.9V210c0-0.7,0.2-1,0.7-1c0.5,0,0.7,0.3,0.7,1v0.2
					c1.6-0.9,2.9-1.3,4.4-1.3c1.5,0,2.9,0.5,3.9,1.4c1,0.9,1.6,2.2,1.6,3.6c0,2.8-1.7,5.3-5,7.4
					C361.6,222.7,358.9,223.8,357.9,223.8z M358,209.1c-0.3,0-0.6,0.1-0.6,0.9v12.9c0,0.7,0.2,0.8,0.5,0.8c1,0,3.6-1.2,5.7-2.5
					c3.3-2.1,4.9-4.6,4.9-7.3c0-2.8-2.3-4.9-5.4-4.9c-1.5,0-2.7,0.4-4.4,1.3l-0.1,0V210C358.6,209.3,358.4,209.1,358,209.1z
					 M358.6,222.3v-10.6l0,0c1.5-1.1,2.8-1.5,4.3-1.5c1.2,0,2.3,0.4,3.1,1.1c0.8,0.7,1.2,1.7,1.2,2.8
					C367.2,217.2,363.3,221,358.6,222.3L358.6,222.3z M358.7,211.8v10.4c2.1-0.6,4.3-1.8,5.8-3.4c1.6-1.6,2.5-3.2,2.5-4.7
					c0-2.2-1.7-3.8-4.1-3.8C361.5,210.3,360.2,210.7,358.7,211.8z"/>
			</g>
			<g>
				<path class="st3" d="M372.1,219.3h6.9c0.7,0,1,0.2,1,0.7c0,0.5-0.3,0.6-1,0.6h-6.9v1.8h11.3c0.7,0,1,0.2,1,0.7
					c0,0.5-0.3,0.7-1,0.7h-11.3c-1.2,0-1.3-0.1-1.3-1V210c0-0.9,0.2-1.1,0.8-1.1h0.5h6.9c0.7,0,1,0.2,1,0.7s-0.2,0.7-1,0.7h-6.9
					V219.3z"/>
				<path class="st3" d="M383.4,223.8h-11.3c-1.3,0-1.4-0.1-1.4-1.1V210c0-0.9,0.2-1.2,0.9-1.2h7.4c0.7,0,1,0.2,1,0.7
					c0,0.5-0.3,0.7-1,0.7h-6.8v8.9h6.8c0.7,0,1,0.2,1,0.7c0,0.5-0.3,0.7-1,0.7h-6.8v1.7h11.2c0.7,0,1,0.2,1,0.7
					C384.4,223.6,384.1,223.8,383.4,223.8z M371.5,209c-0.5,0-0.7,0.2-0.7,1v12.7c0,0.9,0.1,1,1.3,1h11.3c0.7,0,0.9-0.2,0.9-0.6
					c0-0.4-0.2-0.6-0.9-0.6H372v-1.9h6.9c0.8,0,0.9-0.2,0.9-0.6c0-0.4-0.2-0.6-0.9-0.6H372v-9.2h6.9c0.8,0,0.9-0.2,0.9-0.6
					c0-0.4-0.2-0.6-0.9-0.6H371.5z"/>
			</g>
			<g>
				<path class="st3" d="M398.9,222.4c0.7,0,1,0.2,1,0.7c0,0.4-0.3,0.7-0.8,0.7c0,0-0.1,0-0.1,0h-11c-0.9,0-1.1-0.2-1.1-1.3V210
					c0-0.7,0.2-1,0.7-1c0.4,0,0.6,0.3,0.6,1v12.4H398.9z"/>
				<path class="st3" d="M399,223.8h-11.1c-1,0-1.2-0.2-1.2-1.4V210c0-0.7,0.2-1,0.7-1c0.5,0,0.7,0.3,0.7,1v12.3h10.7
					c0.7,0,1,0.2,1,0.7C399.9,223.4,399.7,223.8,399,223.8z M387.4,209.1c-0.4,0-0.6,0.3-0.6,0.9v12.4c0,1.1,0.1,1.3,1,1.3H399
					c0.5,0,0.8-0.2,0.8-0.6c0-0.4-0.2-0.6-0.9-0.6H388V210C388,209.2,387.7,209.1,387.4,209.1z"/>
			</g>
			<g>
				<path class="st3" d="M402.5,223.8c-0.4,0-0.6-0.3-0.6-1V210c0-0.7,0.2-1,0.7-1c0.5,0,0.7,0.3,0.7,1v12.8
					C403.2,223.4,403,223.8,402.5,223.8z"/>
				<path class="st3" d="M402.5,223.8c-0.5,0-0.7-0.3-0.7-1V210c0-0.7,0.2-1,0.7-1c0.5,0,0.7,0.3,0.7,1v12.8
					C403.3,223.5,403,223.8,402.5,223.8z M402.6,209.1c-0.3,0-0.6,0.1-0.6,0.9v12.8c0,0.8,0.3,0.9,0.6,0.9c0.4,0,0.6-0.3,0.6-0.9
					V210C403.2,209.3,403,209.1,402.6,209.1z"/>
			</g>
			<g>
				<path class="st3" d="M407,218.8c0,2.2,1.7,3.8,4,3.8c1.4,0,3.1-0.6,4.3-1.5l0.6-0.5c0.2-0.1,0.3-0.2,0.4-0.2
					c0.3,0,0.6,0.3,0.6,0.7c0,0.3-0.3,0.7-1.3,1.3c-1.5,1-3.2,1.5-4.9,1.5c-3,0-5.2-2.2-5.2-5.1c0-3.3,2.9-6.6,7.2-8.4
					c1.5-0.6,3.4-1.1,4.5-1.2c0,0,0.1,0,0.1,0c0.6,0,0.9,0.4,0.9,1.1v0.6c0,0.7-0.2,1-0.7,1c-0.5,0-0.6-0.3-0.6-1v-0.4
					C411.2,211.6,407,215.1,407,218.8z"/>
				<path class="st3" d="M410.8,224c-1.5,0-2.8-0.5-3.8-1.5c-1-0.9-1.5-2.3-1.5-3.7c0-1.6,0.7-3.3,2-4.8c1.3-1.5,3.1-2.8,5.3-3.7
					c1.5-0.6,3.5-1.1,4.5-1.2l0.1,0c0.6,0,0.9,0.4,0.9,1.1v0.6c0,0.7-0.2,1-0.7,1c-0.5,0-0.7-0.3-0.7-1v-0.4c-2.8,0.5-5.2,1.6-7,3.1
					c-1.8,1.5-2.8,3.3-2.8,5.1c0,2.2,1.7,3.7,4,3.7c1.4,0,3.1-0.6,4.2-1.5l0.6-0.5c0.2-0.1,0.3-0.2,0.5-0.2c0.4,0,0.7,0.3,0.7,0.7
					c0,0.4-0.3,0.7-1.4,1.4C414.3,223.4,412.5,224,410.8,224z M417.3,209.3c-1.1,0.1-3,0.6-4.5,1.2c-2.1,0.9-3.9,2.1-5.2,3.6
					c-1.3,1.5-2,3.1-2,4.7c0,2.9,2.2,5,5.2,5c1.7,0,3.4-0.5,4.9-1.5c1-0.6,1.3-0.9,1.3-1.3c0-0.3-0.3-0.6-0.6-0.6
					c-0.1,0-0.3,0.1-0.4,0.2l-0.6,0.5c-1.2,0.9-2.9,1.5-4.3,1.5c-2.4,0-4.1-1.6-4.1-3.9c0-1.8,1-3.6,2.8-5.1
					c1.8-1.5,4.3-2.6,7.1-3.2l0.1,0v0.5c0,0.8,0.2,0.9,0.6,0.9c0.4,0,0.6-0.3,0.6-0.9v-0.6C418.2,209.9,418.1,209.3,417.3,209.3
					L417.3,209.3z"/>
			</g>
			<g>
				<path class="st3" d="M421.3,223.8c-0.4,0-0.6-0.3-0.6-1V210c0-0.7,0.2-1,0.7-1c0.5,0,0.7,0.3,0.7,1v12.8
					C422,223.4,421.7,223.8,421.3,223.8z"/>
				<path class="st3" d="M421.3,223.8c-0.5,0-0.7-0.3-0.7-1V210c0-0.7,0.2-1,0.7-1c0.5,0,0.7,0.3,0.7,1v12.8
					C422,223.5,421.8,223.8,421.3,223.8z M421.3,209.1c-0.3,0-0.6,0.1-0.6,0.9v12.8c0,0.8,0.3,0.9,0.6,0.9c0.4,0,0.6-0.3,0.6-0.9
					V210C421.9,209.3,421.7,209.1,421.3,209.1z"/>
			</g>
			<g>
				<path class="st3" d="M432.1,220.9c-1.8,1.8-3.8,2.8-5.5,2.8c-1.6,0-2.7-1.2-2.7-2.9c0-2.5,2.2-6.6,4.9-9.2
					c1.8-1.7,3.7-2.7,5.2-2.7c1.8,0,2.9,1.1,2.9,2.8C436.8,214.4,434.8,218.3,432.1,220.9z M433.8,210.1c-1.6,0-4.1,2-6.1,4.8
					c-1.5,2.1-2.5,4.4-2.5,5.9c0,1.1,0.6,1.7,1.6,1.7c1.1,0,2.6-0.9,4.2-2.4c2.5-2.4,4.4-6.1,4.4-8.3
					C435.5,210.8,434.8,210.1,433.8,210.1z"/>
				<path class="st3" d="M426.6,223.8c-1.7,0-2.8-1.2-2.8-3c0-2.5,2.2-6.7,4.9-9.2c1.8-1.7,3.8-2.7,5.2-2.7c1.8,0,2.9,1.1,2.9,2.9
					c0,2.6-2,6.6-4.7,9.2l0,0C430.3,222.8,428.3,223.8,426.6,223.8z M434,209c-1.4,0-3.3,1-5.2,2.7c-2.7,2.5-4.8,6.6-4.8,9.1
					c0,1.7,1.1,2.9,2.7,2.9c1.6,0,3.6-1,5.4-2.8c2.7-2.6,4.7-6.5,4.7-9.1C436.7,210,435.7,209,434,209z M426.8,222.6
					c-1,0-1.6-0.7-1.6-1.8c0-1.5,0.9-3.8,2.5-5.9c2-2.8,4.6-4.8,6.2-4.8c1,0,1.7,0.7,1.7,1.8c0,2.2-2,5.9-4.5,8.3
					C429.5,221.7,427.9,222.6,426.8,222.6z M433.8,210.2c-1.5,0-4.1,2-6.1,4.8c-1.5,2.1-2.5,4.3-2.5,5.8c0,1,0.6,1.7,1.5,1.7
					c1.1,0,2.6-0.9,4.2-2.4c2.4-2.4,4.4-6.1,4.4-8.2C435.4,210.9,434.8,210.2,433.8,210.2z"/>
			</g>
			<g>
				<path class="st3" d="M441,223.7c-0.4,0.1-0.6,0.1-0.8,0.1c-1,0-1.5-0.8-1.5-2.3v-1.1V210c0-0.7,0.2-1,0.7-1c0.5,0,0.7,0.3,0.7,1
					v10.5v0.9c0,0.9,0.1,1.1,0.6,1.1c0.2,0,0.6-0.1,1.1-0.2l5.9-1.5V210c0-0.7,0.2-1,0.7-1c0.5,0,0.7,0.3,0.7,1v12.8
					c0,0.7-0.2,1-0.7,1c-0.4,0-0.6-0.3-0.6-1v-0.7L441,223.7z"/>
				<path class="st3" d="M440.2,223.9c-1,0-1.6-0.8-1.6-2.4V210c0-0.7,0.2-1,0.7-1c0.5,0,0.7,0.3,0.7,1v11.3c0,0.9,0.1,1,0.5,1
					c0.2,0,0.6-0.1,1-0.2l5.9-1.5V210c0-0.7,0.2-1,0.7-1c0.5,0,0.7,0.3,0.7,1v12.8c0,0.7-0.2,1-0.7,1c-0.5,0-0.7-0.3-0.7-1v-0.6
					l-6.4,1.6C440.6,223.9,440.4,223.9,440.2,223.9z M439.4,209.1c-0.3,0-0.6,0.1-0.6,0.9v11.5c0,1.5,0.5,2.3,1.4,2.3
					c0.2,0,0.4,0,0.8-0.1l0,0l6.6-1.6v0.8c0,0.8,0.3,0.9,0.6,0.9c0.4,0,0.6-0.3,0.6-0.9V210c0-0.6-0.2-0.9-0.6-0.9
					c-0.3,0-0.6,0.1-0.6,0.9v10.8l0,0l-5.9,1.5c-0.5,0.1-0.9,0.2-1.1,0.2c-0.5,0-0.6-0.3-0.6-1.1V210
					C440,209.3,439.8,209.1,439.4,209.1z"/>
			</g>
			<g>
				<path class="st3" d="M458.9,213.5c3.7,0,6.5,2,6.5,4.6c0,3.1-3.3,5.6-7.3,5.6c-2.4,0-5.1-0.9-6.8-2.3c-0.3-0.2-0.4-0.4-0.4-0.6
					c0-0.4,0.3-0.7,0.6-0.7c0.2,0,0.4,0.1,0.8,0.4c1.4,1.1,3.7,1.7,5.6,1.7c3.3,0,6-1.9,6-4.2c0-2-2.1-3.4-5-3.4
					c-1.2,0-2.3,0.2-3.9,0.7c-0.2,0-0.3,0.1-0.4,0.1c-0.2,0-0.4-0.1-0.6-0.3c-0.1-0.1-0.1-0.3-0.1-0.4c0-0.2,0.1-0.4,0.4-0.8l4-4.6
					c0.2-0.2,0.4-0.3,0.6-0.3c0.4,0,0.7,0.3,0.7,0.6c0,0.2-0.1,0.3-0.3,0.6l-2.9,3.4C457.3,213.6,458.1,213.5,458.9,213.5z"/>
				<path class="st3" d="M458,223.8c-2.4,0-5.1-0.9-6.8-2.3c-0.3-0.2-0.4-0.4-0.4-0.6c0-0.4,0.3-0.7,0.7-0.7c0.2,0,0.4,0.1,0.8,0.4
					c1.4,1.1,3.6,1.7,5.6,1.7c3.3,0,5.9-1.8,5.9-4.1c0-2-2-3.3-5-3.3c-1.2,0-2.3,0.2-3.9,0.7c-0.2,0-0.3,0.1-0.4,0.1
					c-0.2,0-0.4-0.1-0.6-0.3l0,0c-0.1-0.2-0.1-0.3-0.1-0.4c0-0.2,0.1-0.4,0.5-0.8l4-4.6c0.2-0.2,0.4-0.4,0.6-0.4
					c0.4,0,0.8,0.3,0.8,0.7c0,0.2-0.1,0.4-0.3,0.7l-2.8,3.3c0.8-0.2,1.6-0.2,2.3-0.2c3.7,0,6.5,2,6.5,4.7
					C465.4,221.2,462.1,223.8,458,223.8z M451.5,220.3c-0.3,0-0.6,0.3-0.6,0.6c0,0.2,0.1,0.4,0.4,0.6c1.7,1.3,4.4,2.2,6.8,2.2
					c4,0,7.3-2.5,7.3-5.5c0-2.6-2.8-4.6-6.4-4.6c-0.8,0-1.6,0.1-2.5,0.3l-0.2,0l3-3.5c0.2-0.3,0.3-0.4,0.3-0.6
					c0-0.3-0.3-0.6-0.6-0.6c-0.2,0-0.3,0.1-0.5,0.3l-4,4.6c-0.3,0.4-0.4,0.6-0.4,0.7c0,0.1,0,0.2,0.1,0.3c0.1,0.2,0.3,0.3,0.5,0.3
					c0.1,0,0.2,0,0.4-0.1c1.6-0.5,2.7-0.7,3.9-0.7c3,0,5.1,1.4,5.1,3.4c0,2.3-2.7,4.2-6,4.2c-2,0-4.2-0.7-5.7-1.8
					C451.9,220.3,451.7,220.3,451.5,220.3z"/>
			</g>
		</g>
	</g>
</g>
</svg>
