<svg xmlns="http://www.w3.org/2000/svg" viewBox="0 0 184 194"><defs><style>.cls-1{fill:#bc3c49;}.cls-2{fill:#ffeb2e;}.cls-3{fill:#238cc5;}</style></defs><title>Asset 1</title><g id="Layer_2" data-name="Layer 2"><g id="Layer_3_copy_2" data-name="Layer 3 copy 2"><polygon class="cls-1" points="0 140 64 120 105 194 118 111 184 44 114 67 100 0 63 59 6 56 37 91 0 140"/><polygon class="cls-2" points="20 128 69 112 101 170 110 106 161 55 108 72 96 19 68 66 24 64 48 90 20 128"/><polygon class="cls-3" points="35 119 73 107 97 151 104 102 139 68 102 76 93 34 72 72 38 70 57 90 35 119"/></g></g></svg>